<svg width="170" height="67" viewBox="0 0 170 67" fill="none" xmlns="http://www.w3.org/2000/svg">
<path d="M57.4751 39.1249C57.4751 46.5178 54.4474 53.608 49.0581 58.8356C43.6688 64.0632 36.3592 67 28.7376 67C21.1159 67 13.8064 64.0632 8.41704 58.8356C3.0277 53.608 1.13572e-07 46.5178 0 39.1249C0 32.1304 3.08616 24.0702 9.17416 15.1693C9.35578 14.9037 9.58962 14.6754 9.86229 14.4976C10.135 14.3197 10.4411 14.1958 10.7632 14.1329C11.0853 14.0699 11.4171 14.0693 11.7395 14.1308C12.0619 14.1924 12.3686 14.3151 12.642 14.4918L22.7239 21.0115L32.3604 1.38199C32.5322 1.03177 32.7882 0.726677 33.1069 0.492341C33.4255 0.258005 33.7975 0.101271 34.1915 0.0353068C34.5856 -0.0306569 34.9902 -0.00392323 35.3713 0.113261C35.7525 0.230446 36.0991 0.434659 36.3821 0.708742C40.9876 5.16815 46.2462 10.5777 50.3304 16.8863C55.1377 24.3126 57.4751 31.5871 57.4751 39.1249Z" fill="#00EDDF"/>
<path d="M28.7376 67C36.3592 67 43.6688 64.0632 49.0581 58.8356C43.0934 41.2853 37.4282 32.9391 22.7239 21.0115L12.642 14.4918C12.3686 14.3151 12.0619 14.1924 11.7395 14.1308C11.4171 14.0693 11.0853 14.0699 10.7632 14.1329C10.4411 14.1958 10.135 14.3197 9.86229 14.4976C9.58962 14.6754 9.35578 14.9037 9.17416 15.1693C3.08616 24.0702 0 32.1304 0 39.1249C1.13572e-07 46.5178 3.0277 53.608 8.41704 58.8356C13.8064 64.0632 21.1159 67 28.7376 67Z" fill="#E5E5E5"/>
<path d="M88.388 49.248H96.452V54H82.232V28.728H88.388V49.248Z" fill="white"/>
<path d="M102.484 31.824C101.404 31.824 100.516 31.512 99.8203 30.888C99.1483 30.24 98.8122 29.448 98.8122 28.512C98.8122 27.552 99.1483 26.76 99.8203 26.136C100.516 25.488 101.404 25.164 102.484 25.164C103.54 25.164 104.404 25.488 105.076 26.136C105.772 26.76 106.12 27.552 106.12 28.512C106.12 29.448 105.772 30.24 105.076 30.888C104.404 31.512 103.54 31.824 102.484 31.824ZM105.544 33.912V54H99.3883V33.912H105.544Z" fill="white"/>
<path d="M116.161 27.36V54H110.005V27.36H116.161Z" fill="white"/>
<path d="M123.719 31.824C122.639 31.824 121.751 31.512 121.055 30.888C120.383 30.24 120.047 29.448 120.047 28.512C120.047 27.552 120.383 26.76 121.055 26.136C121.751 25.488 122.639 25.164 123.719 25.164C124.775 25.164 125.639 25.488 126.311 26.136C127.007 26.76 127.355 27.552 127.355 28.512C127.355 29.448 127.007 30.24 126.311 30.888C125.639 31.512 124.775 31.824 123.719 31.824ZM126.779 33.912V54H120.623V33.912H126.779Z" fill="white"/>
<path d="M150.176 43.632C150.176 44.208 150.14 44.808 150.068 45.432H136.136C136.232 46.68 136.628 47.64 137.324 48.312C138.044 48.96 138.92 49.284 139.952 49.284C141.488 49.284 142.556 48.636 143.156 47.34H149.708C149.372 48.66 148.76 49.848 147.872 50.904C147.008 51.96 145.916 52.788 144.596 53.388C143.276 53.988 141.8 54.288 140.168 54.288C138.2 54.288 136.448 53.868 134.912 53.028C133.376 52.188 132.176 50.988 131.312 49.428C130.448 47.868 130.016 46.044 130.016 43.956C130.016 41.868 130.436 40.044 131.276 38.484C132.14 36.924 133.34 35.724 134.876 34.884C136.412 34.044 138.176 33.624 140.168 33.624C142.112 33.624 143.84 34.032 145.352 34.848C146.864 35.664 148.04 36.828 148.88 38.34C149.744 39.852 150.176 41.616 150.176 43.632ZM143.876 42.012C143.876 40.956 143.516 40.116 142.796 39.492C142.076 38.868 141.176 38.556 140.096 38.556C139.064 38.556 138.188 38.856 137.468 39.456C136.772 40.056 136.34 40.908 136.172 42.012H143.876Z" fill="white"/>
<path d="M161.595 54.288C159.843 54.288 158.283 53.988 156.915 53.388C155.547 52.788 154.467 51.972 153.675 50.94C152.883 49.884 152.439 48.708 152.343 47.412H158.427C158.499 48.108 158.823 48.672 159.399 49.104C159.975 49.536 160.683 49.752 161.523 49.752C162.291 49.752 162.879 49.608 163.287 49.32C163.719 49.008 163.935 48.612 163.935 48.132C163.935 47.556 163.635 47.136 163.035 46.872C162.435 46.584 161.463 46.272 160.119 45.936C158.679 45.6 157.479 45.252 156.519 44.892C155.559 44.508 154.731 43.92 154.035 43.128C153.339 42.312 152.991 41.22 152.991 39.852C152.991 38.7 153.303 37.656 153.927 36.72C154.575 35.76 155.511 35.004 156.735 34.452C157.983 33.9 159.459 33.624 161.163 33.624C163.683 33.624 165.663 34.248 167.103 35.496C168.567 36.744 169.407 38.4 169.623 40.464H163.935C163.839 39.768 163.527 39.216 162.999 38.808C162.495 38.4 161.823 38.196 160.983 38.196C160.263 38.196 159.711 38.34 159.327 38.628C158.943 38.892 158.751 39.264 158.751 39.744C158.751 40.32 159.051 40.752 159.651 41.04C160.275 41.328 161.235 41.616 162.531 41.904C164.019 42.288 165.231 42.672 166.167 43.056C167.103 43.416 167.919 44.016 168.615 44.856C169.335 45.672 169.707 46.776 169.731 48.168C169.731 49.344 169.395 50.4 168.723 51.336C168.075 52.248 167.127 52.968 165.879 53.496C164.655 54.024 163.227 54.288 161.595 54.288Z" fill="white"/>
</svg>
